<?xml version="1.0" standalone="no"?>
<!DOCTYPE svg PUBLIC "-//W3C//DTD SVG 20010904//EN"
 "http://www.w3.org/TR/2001/REC-SVG-20010904/DTD/svg10.dtd">
<svg version="1.0" xmlns="http://www.w3.org/2000/svg"
 width="1200.000000pt" height="1200.000000pt" viewBox="0 0 1200.000000 1200.000000"
 preserveAspectRatio="xMidYMid meet">
<metadata>
Created by potrace 1.11, written by Peter Selinger 2001-2013
</metadata>
<g transform="translate(0.000000,1200.000000) scale(0.100000,-0.100000)"
fill="#000000" stroke="none">
<path d="M5718 11395 c-2 -1 -48 -6 -103 -9 -55 -4 -118 -9 -140 -11 -79 -8
-150 -16 -170 -20 -11 -2 -40 -7 -65 -10 -25 -3 -56 -7 -70 -10 -14 -2 -41 -7
-60 -9 -73 -11 -235 -43 -340 -68 -297 -70 -671 -194 -910 -300 -262 -117
-490 -237 -700 -367 -84 -52 -185 -118 -205 -134 -5 -4 -55 -40 -110 -79 -91
-65 -286 -218 -360 -283 -351 -308 -645 -630 -883 -968 -338 -480 -569 -939
-742 -1474 -47 -144 -121 -414 -134 -488 -2 -16 -8 -41 -11 -55 -9 -37 -62
-348 -69 -400 -3 -25 -8 -72 -11 -105 -4 -33 -8 -70 -10 -82 -19 -123 -27
-721 -12 -913 7 -89 10 -114 23 -230 19 -171 66 -437 119 -670 58 -252 215
-702 337 -960 36 -75 56 -116 133 -270 10 -19 41 -75 70 -125 29 -49 54 -94
56 -100 10 -24 255 -396 289 -438 5 -7 55 -70 111 -142 238 -303 505 -581 769
-798 52 -43 104 -86 115 -96 169 -142 533 -385 787 -524 151 -83 488 -242 578
-272 3 -1 19 -7 35 -14 17 -7 62 -24 100 -37 39 -14 79 -29 90 -34 41 -18 210
-70 375 -115 39 -11 97 -26 115 -30 11 -3 70 -16 130 -29 61 -14 178 -36 260
-50 150 -25 182 -30 285 -41 30 -4 69 -8 85 -10 117 -13 289 -20 530 -20 314
0 510 12 730 45 33 5 78 12 100 15 196 29 426 80 625 137 124 35 317 96 345
108 11 4 47 18 80 31 853 321 1621 857 2200 1534 33 39 62 72 65 75 5 5 76 94
155 195 17 21 46 61 65 89 19 28 38 53 41 56 3 3 37 52 76 110 264 395 493
862 639 1305 76 233 161 562 188 735 3 19 7 44 10 55 2 11 7 40 10 65 3 25 8
56 11 70 3 14 7 45 10 70 2 25 8 70 11 100 22 186 29 326 29 600 0 233 -8 435
-19 511 -3 13 -7 53 -10 89 -3 36 -8 76 -10 90 -2 14 -7 46 -10 71 -4 25 -9
57 -11 70 -2 13 -11 65 -20 116 -8 51 -25 134 -36 185 -11 51 -22 107 -25 123
-12 66 -116 411 -168 556 -48 135 -70 191 -142 358 -27 62 -192 393 -231 464
-182 325 -475 731 -719 997 -102 111 -301 308 -394 390 -40 36 -78 70 -84 76
-6 5 -76 62 -156 125 -172 137 -348 262 -509 361 -64 39 -127 78 -141 87 -79
50 -382 205 -512 262 -412 182 -826 310 -1243 384 -95 17 -372 55 -440 60 -44
4 -96 9 -115 11 -38 6 -676 14 -682 9z m667 -1139 c17 -2 55 -7 85 -10 30 -4
98 -13 150 -21 52 -8 113 -17 135 -20 22 -3 46 -8 54 -11 8 -2 30 -7 50 -10
51 -8 322 -79 411 -107 334 -107 639 -245 930 -422 85 -51 164 -102 185 -118
6 -4 55 -39 110 -78 191 -137 351 -274 538 -463 464 -468 811 -1031 1021
-1660 47 -139 115 -390 130 -479 3 -15 7 -35 10 -45 3 -9 7 -35 11 -57 3 -22
10 -65 15 -95 5 -30 12 -73 14 -95 12 -109 18 -153 22 -190 10 -71 12 -638 3
-720 -24 -222 -24 -222 -73 -500 -12 -69 -60 -258 -91 -359 -148 -486 -365
-917 -669 -1326 -38 -52 -73 -97 -76 -100 -3 -3 -23 -27 -45 -55 -63 -80 -174
-202 -280 -309 -609 -613 -1386 -1027 -2230 -1190 -71 -14 -150 -27 -175 -30
-119 -15 -137 -18 -160 -22 -157 -25 -753 -25 -910 0 -14 3 -49 7 -79 10 -63
7 -176 24 -211 31 -14 2 -36 7 -50 10 -14 2 -40 7 -58 10 -138 23 -487 126
-681 202 -153 59 -375 162 -486 225 -414 233 -696 446 -1011 763 -464 468
-820 1049 -1023 1668 -46 140 -104 360 -127 477 -8 41 -16 86 -19 100 -2 13
-7 42 -10 65 -3 22 -10 67 -15 100 -41 270 -49 759 -16 1025 2 14 7 54 11 90
4 36 9 74 11 85 2 10 6 35 9 55 3 20 7 47 10 60 5 23 13 70 21 113 2 10 5 26
8 35 3 9 7 28 10 42 10 57 58 234 96 355 119 373 314 774 534 1100 34 49 64
94 69 100 260 341 401 494 682 745 417 372 992 689 1558 861 70 21 139 41 152
43 14 3 28 7 32 9 9 6 341 74 393 81 19 2 60 7 90 11 30 4 64 9 75 11 11 2 65
7 120 10 55 4 102 8 105 11 6 5 594 -4 635 -11z"/>
<path d="M5875 9330 c-104 -37 -182 -97 -232 -181 -68 -113 -64 18 -61 -2020
l3 -1844 28 -65 c16 -36 41 -81 55 -100 132 -178 354 -225 532 -112 33 20 216
195 450 428 217 216 634 631 926 921 340 338 541 545 558 575 38 68 55 142 52
234 -2 66 -8 92 -34 147 -104 223 -365 314 -587 205 -26 -13 -238 -218 -592
-571 l-553 -552 -1 1290 c0 710 -3 1303 -5 1318 -23 138 -135 270 -270 319
-79 28 -201 32 -269 8z"/>
</g>
</svg>
